<svg xmlns="http://www.w3.org/2000/svg" viewBox="0 0 1600 1080" role="img" aria-labelledby="title desc">
  <title id="title">SGS Senior Secondary School logo</title>
  <desc id="desc">SGS Senior Secondary School seal with motto and Shreeramnagar ribbon.</desc>
  <defs>
    <path id="outerTop" d="M384 452a416 416 0 0 1 832 0" />
    <path id="mottoLeft" d="M560 540a260 260 0 0 0 207 215" />
    <path id="mottoBottom" d="M642 742a270 270 0 0 0 316 0" />
    <path id="mottoRight" d="M1040 540a260 260 0 0 1-207 215" />
    <filter id="logoShadow" x="-12%" y="-12%" width="124%" height="130%">
      <feDropShadow dx="0" dy="8" stdDeviation="8" flood-color="#07236f" flood-opacity="0.18" />
    </filter>
  </defs>

  <rect width="1600" height="1080" fill="none" />

  <g filter="url(#logoShadow)">
    <path d="M152 652c56-51 103-52 140 6 58 90 145 170 263 226l-76 41C339 859 239 765 181 644c-19-39-46-40-88-2Z" fill="#eefbff" stroke="#0640d9" stroke-width="8" />
    <path d="M1448 652c-56-51-103-52-140 6-58 90-145 170-263 226l76 41c140-66 240-160 298-281 19-39 46-40 88-2Z" fill="#eefbff" stroke="#0640d9" stroke-width="8" />

    <path d="M49 826c112 11 214 17 316-18 35-12 60 31 30 55-84 67-213 70-371 17Z" fill="#eefbff" stroke="#0640d9" stroke-width="8" />
    <path d="M1551 826c-112 11-214 17-316-18-35-12-60 31-30 55 84 67 213 70 371 17Z" fill="#eefbff" stroke="#0640d9" stroke-width="8" />

    <path d="M132 841c407 206 929 206 1336 0 27-14 55 21 32 45-248 262-1152 262-1400 0-23-24 5-59 32-45Z" fill="#f6ffff" stroke="#0640d9" stroke-width="8" />
    <path d="M188 866c372 165 852 165 1224 0" fill="none" stroke="#bdeff5" stroke-width="16" stroke-linecap="round" opacity="0.9" />
    <text x="800" y="1016" text-anchor="middle" font-family="Arial Black, Arial, sans-serif" font-size="48" font-weight="900" fill="#101010">SHREERAMNAGAR</text>
  </g>

  <g>
    <circle cx="800" cy="460" r="426" fill="#42f0f2" stroke="#063bd4" stroke-width="11" />
    <circle cx="800" cy="460" r="331" fill="#ffdf10" stroke="#063bd4" stroke-width="9" />
    <circle cx="800" cy="460" r="210" fill="#f5ffff" stroke="#063bd4" stroke-width="8" />

    <text font-family="Arial Black, Arial, sans-serif" font-size="78" font-weight="900" fill="#f20b13" stroke="#ffffff" stroke-width="7" paint-order="stroke">
      <textPath href="#outerTop" startOffset="50%" text-anchor="middle">SGS SENIOR SECONDARY SCHOOL</textPath>
    </text>

    <text font-family="Arial Black, Arial, sans-serif" font-size="44" font-weight="900" fill="#008a19" stroke="#dfff55" stroke-width="5" paint-order="stroke">
      <textPath href="#mottoLeft" startOffset="50%" text-anchor="middle">BE GOOD</textPath>
    </text>
    <text font-family="Arial Black, Arial, sans-serif" font-size="43" font-weight="900" fill="#008a19" stroke="#dfff55" stroke-width="5" paint-order="stroke">
      <textPath href="#mottoBottom" startOffset="50%" text-anchor="middle">SAY GOOD</textPath>
    </text>
    <text font-family="Arial Black, Arial, sans-serif" font-size="44" font-weight="900" fill="#008a19" stroke="#dfff55" stroke-width="5" paint-order="stroke">
      <textPath href="#mottoRight" startOffset="50%" text-anchor="middle">DO GOOD</textPath>
    </text>

    <circle cx="614" cy="708" r="12" fill="#053bd7" />
    <circle cx="986" cy="708" r="12" fill="#053bd7" />
    <circle cx="800" cy="810" r="34" fill="#040404" />

    <g fill="none" stroke="#0a0a0a" stroke-linecap="round" stroke-linejoin="round">
      <path d="M801 287v275" stroke-width="20" />
      <path d="M759 375c50 23 48 61-4 82 60 31 59 76-3 106" stroke-width="17" />
      <path d="M843 375c-50 23-48 61 4 82-60 31-59 76 3 106" stroke-width="17" />
      <path d="M631 619h338" stroke-width="16" />

      <circle cx="670" cy="472" r="51" fill="#0a0a0a" stroke-width="6" />
      <path d="M610 630c16-89 42-131 80-128 39 2 66 45 82 128" stroke-width="28" />
      <path d="M704 508c32 54 78 85 138 91" stroke-width="25" />

      <circle cx="930" cy="472" r="51" fill="#0a0a0a" stroke-width="6" />
      <path d="M990 630c-16-89-42-131-80-128-39 2-66 45-82 128" stroke-width="28" />
      <path d="M896 508c-32 54-78 85-138 91" stroke-width="25" />

      <path d="M638 475c20-12 42-12 62 0" stroke="#f5ffff" stroke-width="11" />
      <path d="M900 475c20-12 42-12 62 0" stroke="#f5ffff" stroke-width="11" />
    </g>

    <rect x="612" y="610" width="376" height="79" fill="#ffffff" stroke="#0a0a0a" stroke-width="9" />
    <text x="800" y="667" text-anchor="middle" font-family="Arial Black, Arial, sans-serif" font-size="52" font-weight="900" fill="#111111">SPEAK TRUTH</text>
  </g>
</svg>
